<mxfile host="65bd71144e">
    <diagram id="bg_41D5jeugq3SWy1JiE" name="Page-1">
        <mxGraphModel dx="2948" dy="2728" grid="1" gridSize="10" guides="1" tooltips="1" connect="1" arrows="1" fold="1" page="1" pageScale="1" pageWidth="827" pageHeight="1169" math="0" shadow="0">
            <root>
                <mxCell id="0"/>
                <mxCell id="1" parent="0"/>
                <mxCell id="120" value="" style="rounded=1;whiteSpace=wrap;html=1;" parent="1" vertex="1">
                    <mxGeometry x="1169.5" y="1480" width="323" height="250" as="geometry"/>
                </mxCell>
                <mxCell id="258" value="" style="rounded=0;whiteSpace=wrap;html=1;" vertex="1" parent="1">
                    <mxGeometry x="1196.5" y="1500" width="273.5" height="160" as="geometry"/>
                </mxCell>
                <mxCell id="167" value="" style="edgeStyle=none;html=1;" parent="1" source="136" target="135" edge="1">
                    <mxGeometry relative="1" as="geometry"/>
                </mxCell>
                <mxCell id="187" style="edgeStyle=none;html=1;entryX=1;entryY=0.5;entryDx=0;entryDy=0;" parent="1" source="136" target="112" edge="1">
                    <mxGeometry relative="1" as="geometry">
                        <Array as="points">
                            <mxPoint x="1560" y="1025"/>
                        </Array>
                    </mxGeometry>
                </mxCell>
                <mxCell id="136" value="" style="rounded=1;whiteSpace=wrap;html=1;" parent="1" vertex="1">
                    <mxGeometry x="1411.5" y="1800" width="323" height="250" as="geometry"/>
                </mxCell>
                <mxCell id="148" value="" style="rounded=0;whiteSpace=wrap;html=1;" parent="1" vertex="1">
                    <mxGeometry x="1480.5" y="1850" width="170" height="110" as="geometry"/>
                </mxCell>
                <mxCell id="101" value="Admin" style="shape=umlActor;verticalLabelPosition=bottom;verticalAlign=top;html=1;outlineConnect=0;" parent="1" vertex="1">
                    <mxGeometry x="725" y="760" width="30" height="60" as="geometry"/>
                </mxCell>
                <mxCell id="102" value="/admin" style="text;html=1;align=center;verticalAlign=middle;resizable=0;points=[];autosize=1;strokeColor=none;fillColor=none;" parent="1" vertex="1">
                    <mxGeometry x="715" y="870" width="60" height="30" as="geometry"/>
                </mxCell>
                <mxCell id="103" value="Photographed" style="shape=umlActor;verticalLabelPosition=bottom;verticalAlign=top;html=1;outlineConnect=0;" parent="1" vertex="1">
                    <mxGeometry x="1316" y="760" width="30" height="60" as="geometry"/>
                </mxCell>
                <mxCell id="104" value="Others" style="shape=umlActor;verticalLabelPosition=bottom;verticalAlign=top;html=1;outlineConnect=0;" parent="1" vertex="1">
                    <mxGeometry x="2226.5" y="760" width="30" height="60" as="geometry"/>
                </mxCell>
                <mxCell id="106" value="/home" style="text;html=1;align=center;verticalAlign=middle;resizable=0;points=[];autosize=1;strokeColor=none;fillColor=none;" parent="1" vertex="1">
                    <mxGeometry x="1300" y="860" width="60" height="30" as="geometry"/>
                </mxCell>
                <mxCell id="107" value="/event" style="text;html=1;align=center;verticalAlign=middle;resizable=0;points=[];autosize=1;strokeColor=none;fillColor=none;" parent="1" vertex="1">
                    <mxGeometry x="2216.5" y="860" width="60" height="30" as="geometry"/>
                </mxCell>
                <mxCell id="108" value="" style="rounded=1;whiteSpace=wrap;html=1;" parent="1" vertex="1">
                    <mxGeometry x="547" y="900" width="323" height="250" as="geometry"/>
                </mxCell>
                <mxCell id="109" value="Printer" style="text;html=1;align=center;verticalAlign=middle;resizable=0;points=[];autosize=1;strokeColor=none;fillColor=none;" parent="1" vertex="1">
                    <mxGeometry x="640" y="920" width="60" height="30" as="geometry"/>
                </mxCell>
                <mxCell id="110" value="Photos" style="text;html=1;align=center;verticalAlign=middle;resizable=0;points=[];autosize=1;strokeColor=none;fillColor=none;fontStyle=1" parent="1" vertex="1">
                    <mxGeometry x="570" y="920" width="60" height="30" as="geometry"/>
                </mxCell>
                <mxCell id="111" value="Theme" style="text;html=1;align=center;verticalAlign=middle;resizable=0;points=[];autosize=1;strokeColor=none;fillColor=none;" parent="1" vertex="1">
                    <mxGeometry x="775" y="920" width="60" height="30" as="geometry"/>
                </mxCell>
                <mxCell id="112" value="" style="rounded=1;whiteSpace=wrap;html=1;" parent="1" vertex="1">
                    <mxGeometry x="1174" y="900" width="323" height="250" as="geometry"/>
                </mxCell>
                <mxCell id="113" value="take photo" style="text;html=1;align=center;verticalAlign=middle;resizable=0;points=[];autosize=1;strokeColor=none;fillColor=none;" parent="1" vertex="1">
                    <mxGeometry x="1295.5" y="1090" width="80" height="30" as="geometry"/>
                </mxCell>
                <mxCell id="114" value="" style="rounded=1;whiteSpace=wrap;html=1;" parent="1" vertex="1">
                    <mxGeometry x="1174" y="1200" width="323" height="250" as="geometry"/>
                </mxCell>
                <mxCell id="115" value="3..2..1" style="text;html=1;align=center;verticalAlign=middle;resizable=0;points=[];autosize=1;strokeColor=none;fillColor=none;" parent="1" vertex="1">
                    <mxGeometry x="1305.5" y="1300" width="60" height="30" as="geometry"/>
                </mxCell>
                <mxCell id="116" value="Gallery" style="text;html=1;align=center;verticalAlign=middle;resizable=0;points=[];autosize=1;strokeColor=none;fillColor=none;" parent="1" vertex="1">
                    <mxGeometry x="710" y="920" width="60" height="30" as="geometry"/>
                </mxCell>
                <mxCell id="117" value="" style="rounded=1;whiteSpace=wrap;html=1;" parent="1" vertex="1">
                    <mxGeometry x="2080" y="900" width="323" height="250" as="geometry"/>
                </mxCell>
                <mxCell id="119" value="Gallery" style="text;html=1;align=center;verticalAlign=middle;resizable=0;points=[];autosize=1;strokeColor=none;fillColor=none;fontStyle=1" parent="1" vertex="1">
                    <mxGeometry x="2106.5" y="920" width="60" height="30" as="geometry"/>
                </mxCell>
                <mxCell id="127" style="edgeStyle=none;html=1;entryX=1;entryY=0.5;entryDx=0;entryDy=0;exitX=1;exitY=0.5;exitDx=0;exitDy=0;" parent="1" source="120" target="112" edge="1">
                    <mxGeometry relative="1" as="geometry">
                        <Array as="points">
                            <mxPoint x="1570" y="1605"/>
                            <mxPoint x="1560" y="1025"/>
                        </Array>
                    </mxGeometry>
                </mxCell>
                <mxCell id="137" style="edgeStyle=none;html=1;entryX=0.5;entryY=0;entryDx=0;entryDy=0;exitX=0.5;exitY=1;exitDx=0;exitDy=0;" parent="1" source="120" target="136" edge="1">
                    <mxGeometry relative="1" as="geometry"/>
                </mxCell>
                <mxCell id="138" style="edgeStyle=none;html=1;entryX=0.5;entryY=0;entryDx=0;entryDy=0;exitX=0.5;exitY=1;exitDx=0;exitDy=0;" parent="1" source="120" target="135" edge="1">
                    <mxGeometry relative="1" as="geometry">
                        <mxPoint x="1211" y="1730" as="sourcePoint"/>
                    </mxGeometry>
                </mxCell>
                <mxCell id="171" style="edgeStyle=none;html=1;entryX=0;entryY=0.5;entryDx=0;entryDy=0;exitX=0;exitY=0.5;exitDx=0;exitDy=0;" parent="1" source="120" target="114" edge="1">
                    <mxGeometry relative="1" as="geometry">
                        <Array as="points">
                            <mxPoint x="1140" y="1605"/>
                            <mxPoint x="1140" y="1325"/>
                        </Array>
                    </mxGeometry>
                </mxCell>
                <mxCell id="121" value="Actor" style="shape=umlActor;verticalLabelPosition=bottom;verticalAlign=top;html=1;outlineConnect=0;" parent="1" vertex="1">
                    <mxGeometry x="1320" y="1550" width="30" height="60" as="geometry"/>
                </mxCell>
                <mxCell id="123" value="delete" style="text;html=1;align=center;verticalAlign=middle;resizable=0;points=[];autosize=1;strokeColor=none;fillColor=none;" parent="1" vertex="1">
                    <mxGeometry x="1305.5" y="1680" width="60" height="30" as="geometry"/>
                </mxCell>
                <mxCell id="124" value="repeat" style="text;html=1;align=center;verticalAlign=middle;resizable=0;points=[];autosize=1;strokeColor=none;fillColor=none;" parent="1" vertex="1">
                    <mxGeometry x="1351.5" y="1680" width="60" height="30" as="geometry"/>
                </mxCell>
                <mxCell id="125" value="to gallery" style="text;html=1;align=center;verticalAlign=middle;resizable=0;points=[];autosize=1;strokeColor=none;fillColor=none;" parent="1" vertex="1">
                    <mxGeometry x="1421.5" y="1680" width="70" height="30" as="geometry"/>
                </mxCell>
                <mxCell id="126" value="&amp;nbsp;to home" style="text;html=1;align=center;verticalAlign=middle;resizable=0;points=[];autosize=1;strokeColor=none;fillColor=none;" parent="1" vertex="1">
                    <mxGeometry x="1174" y="1680" width="70" height="30" as="geometry"/>
                </mxCell>
                <mxCell id="128" value="&lt;br&gt;home" style="text;html=1;align=center;verticalAlign=middle;resizable=0;points=[];autosize=1;strokeColor=none;fillColor=none;" parent="1" vertex="1">
                    <mxGeometry x="1579" y="1305" width="50" height="40" as="geometry"/>
                </mxCell>
                <mxCell id="129" value="" style="endArrow=none;html=1;" parent="1" edge="1">
                    <mxGeometry width="50" height="50" relative="1" as="geometry">
                        <mxPoint x="580" y="960" as="sourcePoint"/>
                        <mxPoint x="848" y="961" as="targetPoint"/>
                    </mxGeometry>
                </mxCell>
                <mxCell id="130" value="" style="endArrow=none;html=1;" parent="1" edge="1">
                    <mxGeometry width="50" height="50" relative="1" as="geometry">
                        <mxPoint x="2108.5" y="960" as="sourcePoint"/>
                        <mxPoint x="2376.5" y="961" as="targetPoint"/>
                    </mxGeometry>
                </mxCell>
                <mxCell id="131" value="" style="endArrow=none;html=1;" parent="1" edge="1">
                    <mxGeometry width="50" height="50" relative="1" as="geometry">
                        <mxPoint x="1201.5" y="1680" as="sourcePoint"/>
                        <mxPoint x="1469.5" y="1681" as="targetPoint"/>
                    </mxGeometry>
                </mxCell>
                <mxCell id="133" value="print" style="text;html=1;align=center;verticalAlign=middle;resizable=0;points=[];autosize=1;strokeColor=none;fillColor=none;" parent="1" vertex="1">
                    <mxGeometry x="1310.5" y="1700" width="50" height="30" as="geometry"/>
                </mxCell>
                <mxCell id="134" value="download" style="text;html=1;align=center;verticalAlign=middle;resizable=0;points=[];autosize=1;strokeColor=none;fillColor=none;" parent="1" vertex="1">
                    <mxGeometry x="1250" y="1680" width="70" height="30" as="geometry"/>
                </mxCell>
                <mxCell id="192" value="" style="edgeStyle=none;html=1;dashed=1;dashPattern=8 8;" parent="1" source="135" target="190" edge="1">
                    <mxGeometry relative="1" as="geometry"/>
                </mxCell>
                <mxCell id="135" value="" style="rounded=1;whiteSpace=wrap;html=1;" parent="1" vertex="1">
                    <mxGeometry x="982.5" y="1800" width="323" height="250" as="geometry"/>
                </mxCell>
                <mxCell id="139" value="to gallery" style="text;html=1;align=center;verticalAlign=middle;resizable=0;points=[];autosize=1;strokeColor=none;fillColor=none;" parent="1" vertex="1">
                    <mxGeometry x="1475" y="1738.5" width="70" height="30" as="geometry"/>
                </mxCell>
                <mxCell id="140" value="download" style="text;html=1;align=center;verticalAlign=middle;resizable=0;points=[];autosize=1;strokeColor=none;fillColor=none;" parent="1" vertex="1">
                    <mxGeometry x="1165" y="1745" width="70" height="30" as="geometry"/>
                </mxCell>
                <mxCell id="143" value="Actor" style="shape=umlActor;verticalLabelPosition=bottom;verticalAlign=top;html=1;outlineConnect=0;" parent="1" vertex="1">
                    <mxGeometry x="1547.5" y="1870" width="30" height="60" as="geometry"/>
                </mxCell>
                <mxCell id="154" value="qr 1" style="rounded=0;whiteSpace=wrap;html=1;" parent="1" vertex="1">
                    <mxGeometry x="1200" y="1830" width="80" height="60" as="geometry"/>
                </mxCell>
                <mxCell id="157" value="1" style="ellipse;whiteSpace=wrap;html=1;aspect=fixed;" parent="1" vertex="1">
                    <mxGeometry x="1005" y="1835" width="40" height="40" as="geometry"/>
                </mxCell>
                <mxCell id="158" value="2" style="ellipse;whiteSpace=wrap;html=1;aspect=fixed;" parent="1" vertex="1">
                    <mxGeometry x="1005" y="1890" width="40" height="40" as="geometry"/>
                </mxCell>
                <mxCell id="159" value="3" style="ellipse;whiteSpace=wrap;html=1;aspect=fixed;" parent="1" vertex="1">
                    <mxGeometry x="1005" y="1950" width="40" height="40" as="geometry"/>
                </mxCell>
                <mxCell id="160" value="qr 2" style="rounded=0;whiteSpace=wrap;html=1;" parent="1" vertex="1">
                    <mxGeometry x="1200" y="1910" width="80" height="60" as="geometry"/>
                </mxCell>
                <mxCell id="161" value="&amp;nbsp;to home" style="text;html=1;align=center;verticalAlign=middle;resizable=0;points=[];autosize=1;strokeColor=none;fillColor=none;" parent="1" vertex="1">
                    <mxGeometry x="1150" y="2010" width="70" height="30" as="geometry"/>
                </mxCell>
                <mxCell id="162" value="back" style="text;html=1;align=center;verticalAlign=middle;resizable=0;points=[];autosize=1;strokeColor=none;fillColor=none;" parent="1" vertex="1">
                    <mxGeometry x="1100" y="2010" width="50" height="30" as="geometry"/>
                </mxCell>
                <mxCell id="165" value="" style="shape=flexArrow;endArrow=classic;html=1;width=7.586206896551724;endSize=3.751724137931035;" parent="1" edge="1">
                    <mxGeometry width="50" height="50" relative="1" as="geometry">
                        <mxPoint x="1456" y="1899.52" as="sourcePoint"/>
                        <mxPoint x="1426" y="1899.52" as="targetPoint"/>
                    </mxGeometry>
                </mxCell>
                <mxCell id="166" value="" style="shape=flexArrow;endArrow=classic;html=1;width=7.586206896551724;endSize=3.751724137931035;" parent="1" edge="1">
                    <mxGeometry width="50" height="50" relative="1" as="geometry">
                        <mxPoint x="1675.5" y="1899.66" as="sourcePoint"/>
                        <mxPoint x="1705.5" y="1899.66" as="targetPoint"/>
                    </mxGeometry>
                </mxCell>
                <mxCell id="168" value="&amp;nbsp;to home" style="text;html=1;align=center;verticalAlign=middle;resizable=0;points=[];autosize=1;strokeColor=none;fillColor=none;" parent="1" vertex="1">
                    <mxGeometry x="1620" y="2010" width="70" height="30" as="geometry"/>
                </mxCell>
                <mxCell id="169" value="back" style="text;html=1;align=center;verticalAlign=middle;resizable=0;points=[];autosize=1;strokeColor=#b85450;fillColor=#f8cecc;" parent="1" vertex="1">
                    <mxGeometry x="1480" y="2010" width="50" height="30" as="geometry"/>
                </mxCell>
                <mxCell id="170" value="download" style="text;html=1;align=center;verticalAlign=middle;resizable=0;points=[];autosize=1;strokeColor=none;fillColor=none;" parent="1" vertex="1">
                    <mxGeometry x="1545" y="2010" width="70" height="30" as="geometry"/>
                </mxCell>
                <mxCell id="181" value="" style="rounded=0;whiteSpace=wrap;html=1;" parent="1" vertex="1">
                    <mxGeometry x="2154.5" y="979" width="170" height="110" as="geometry"/>
                </mxCell>
                <mxCell id="182" value="Actor" style="shape=umlActor;verticalLabelPosition=bottom;verticalAlign=top;html=1;outlineConnect=0;" parent="1" vertex="1">
                    <mxGeometry x="2221.5" y="999" width="30" height="60" as="geometry"/>
                </mxCell>
                <mxCell id="183" value="" style="shape=flexArrow;endArrow=classic;html=1;width=7.586206896551724;endSize=3.751724137931035;" parent="1" edge="1">
                    <mxGeometry width="50" height="50" relative="1" as="geometry">
                        <mxPoint x="2130" y="1028.5200000000004" as="sourcePoint"/>
                        <mxPoint x="2100" y="1028.5200000000004" as="targetPoint"/>
                    </mxGeometry>
                </mxCell>
                <mxCell id="184" value="" style="shape=flexArrow;endArrow=classic;html=1;width=7.586206896551724;endSize=3.751724137931035;" parent="1" edge="1">
                    <mxGeometry width="50" height="50" relative="1" as="geometry">
                        <mxPoint x="2349.5" y="1028.6599999999999" as="sourcePoint"/>
                        <mxPoint x="2379.5" y="1028.6599999999999" as="targetPoint"/>
                    </mxGeometry>
                </mxCell>
                <mxCell id="186" value="download" style="text;html=1;align=center;verticalAlign=middle;resizable=0;points=[];autosize=1;strokeColor=none;fillColor=none;" parent="1" vertex="1">
                    <mxGeometry x="2240" y="1109" width="70" height="30" as="geometry"/>
                </mxCell>
                <mxCell id="188" value="&lt;meta charset=&quot;utf-8&quot;&gt;&lt;span style=&quot;color: rgb(0, 0, 0); font-family: Helvetica; font-size: 12px; font-style: normal; font-variant-ligatures: normal; font-variant-caps: normal; font-weight: 400; letter-spacing: normal; orphans: 2; text-align: center; text-indent: 0px; text-transform: none; widows: 2; word-spacing: 0px; -webkit-text-stroke-width: 0px; background-color: rgb(251, 251, 251); text-decoration-thickness: initial; text-decoration-style: initial; text-decoration-color: initial; float: none; display: inline !important;&quot;&gt;30sec&lt;/span&gt;" style="text;whiteSpace=wrap;html=1;" parent="1" vertex="1">
                    <mxGeometry x="1500" y="1580" width="40" height="20" as="geometry"/>
                </mxCell>
                <mxCell id="189" value="Downloader" style="shape=umlActor;verticalLabelPosition=bottom;verticalAlign=top;html=1;outlineConnect=0;" parent="1" vertex="1">
                    <mxGeometry x="1120" y="2430" width="30" height="60" as="geometry"/>
                </mxCell>
                <mxCell id="190" value="" style="rounded=1;whiteSpace=wrap;html=1;" parent="1" vertex="1">
                    <mxGeometry x="982.5" y="2150" width="323" height="250" as="geometry"/>
                </mxCell>
                <mxCell id="206" value="" style="rounded=0;whiteSpace=wrap;html=1;" parent="1" vertex="1">
                    <mxGeometry x="1055" y="2200" width="170" height="110" as="geometry"/>
                </mxCell>
                <mxCell id="207" value="Actor" style="shape=umlActor;verticalLabelPosition=bottom;verticalAlign=top;html=1;outlineConnect=0;" parent="1" vertex="1">
                    <mxGeometry x="1122" y="2220" width="30" height="60" as="geometry"/>
                </mxCell>
                <mxCell id="208" value="" style="shape=flexArrow;endArrow=classic;html=1;width=7.586206896551724;endSize=3.751724137931035;" parent="1" edge="1">
                    <mxGeometry width="50" height="50" relative="1" as="geometry">
                        <mxPoint x="1030.5" y="2249.52" as="sourcePoint"/>
                        <mxPoint x="1000.5" y="2249.52" as="targetPoint"/>
                    </mxGeometry>
                </mxCell>
                <mxCell id="209" value="" style="shape=flexArrow;endArrow=classic;html=1;width=7.586206896551724;endSize=3.751724137931035;" parent="1" edge="1">
                    <mxGeometry width="50" height="50" relative="1" as="geometry">
                        <mxPoint x="1250" y="2249.66" as="sourcePoint"/>
                        <mxPoint x="1280" y="2249.66" as="targetPoint"/>
                    </mxGeometry>
                </mxCell>
                <mxCell id="213" value="" style="rounded=1;whiteSpace=wrap;html=1;" parent="1" vertex="1">
                    <mxGeometry x="695.5" y="1200" width="323" height="250" as="geometry"/>
                </mxCell>
                <mxCell id="214" value="Gallery" style="text;html=1;align=center;verticalAlign=middle;resizable=0;points=[];autosize=1;strokeColor=none;fillColor=none;fontStyle=1" parent="1" vertex="1">
                    <mxGeometry x="883" y="1220" width="60" height="30" as="geometry"/>
                </mxCell>
                <mxCell id="215" value="" style="endArrow=none;html=1;" parent="1" edge="1">
                    <mxGeometry width="50" height="50" relative="1" as="geometry">
                        <mxPoint x="724" y="1260" as="sourcePoint"/>
                        <mxPoint x="992" y="1261" as="targetPoint"/>
                    </mxGeometry>
                </mxCell>
                <mxCell id="216" value="" style="rounded=0;whiteSpace=wrap;html=1;" parent="1" vertex="1">
                    <mxGeometry x="770" y="1279" width="170" height="110" as="geometry"/>
                </mxCell>
                <mxCell id="217" value="Actor" style="shape=umlActor;verticalLabelPosition=bottom;verticalAlign=top;html=1;outlineConnect=0;" parent="1" vertex="1">
                    <mxGeometry x="837" y="1299" width="30" height="60" as="geometry"/>
                </mxCell>
                <mxCell id="218" value="" style="shape=flexArrow;endArrow=classic;html=1;width=7.586206896551724;endSize=3.751724137931035;" parent="1" edge="1">
                    <mxGeometry width="50" height="50" relative="1" as="geometry">
                        <mxPoint x="745.5" y="1328.5200000000004" as="sourcePoint"/>
                        <mxPoint x="715.5" y="1328.5200000000004" as="targetPoint"/>
                    </mxGeometry>
                </mxCell>
                <mxCell id="219" value="" style="shape=flexArrow;endArrow=classic;html=1;width=7.586206896551724;endSize=3.751724137931035;" parent="1" edge="1">
                    <mxGeometry width="50" height="50" relative="1" as="geometry">
                        <mxPoint x="965" y="1328.6599999999999" as="sourcePoint"/>
                        <mxPoint x="995" y="1328.6599999999999" as="targetPoint"/>
                    </mxGeometry>
                </mxCell>
                <mxCell id="220" value="download" style="text;html=1;align=center;verticalAlign=middle;resizable=0;points=[];autosize=1;strokeColor=none;fillColor=none;" parent="1" vertex="1">
                    <mxGeometry x="855.5" y="1409" width="70" height="30" as="geometry"/>
                </mxCell>
                <mxCell id="221" value="" style="rounded=1;whiteSpace=wrap;html=1;" parent="1" vertex="1">
                    <mxGeometry x="350" y="1200" width="323" height="250" as="geometry"/>
                </mxCell>
                <mxCell id="223" value="" style="endArrow=none;html=1;" parent="1" edge="1">
                    <mxGeometry width="50" height="50" relative="1" as="geometry">
                        <mxPoint x="378.5" y="1260" as="sourcePoint"/>
                        <mxPoint x="646.5" y="1261" as="targetPoint"/>
                    </mxGeometry>
                </mxCell>
                <mxCell id="224" value="" style="rounded=0;whiteSpace=wrap;html=1;" parent="1" vertex="1">
                    <mxGeometry x="424.5" y="1279" width="170" height="110" as="geometry"/>
                </mxCell>
                <mxCell id="229" value="Theme" style="text;html=1;align=center;verticalAlign=middle;resizable=0;points=[];autosize=1;strokeColor=none;fillColor=none;fontStyle=1" parent="1" vertex="1">
                    <mxGeometry x="594.5" y="1220" width="60" height="30" as="geometry"/>
                </mxCell>
                <mxCell id="230" value="Christmas" style="text;html=1;strokeColor=none;fillColor=none;align=center;verticalAlign=middle;whiteSpace=wrap;rounded=0;" parent="1" vertex="1">
                    <mxGeometry x="473" y="1319" width="60" height="30" as="geometry"/>
                </mxCell>
                <mxCell id="231" value="" style="rounded=0;whiteSpace=wrap;html=1;" parent="1" vertex="1">
                    <mxGeometry x="603" y="1279" width="60" height="110" as="geometry"/>
                </mxCell>
                <mxCell id="232" value="" style="rounded=0;whiteSpace=wrap;html=1;" parent="1" vertex="1">
                    <mxGeometry x="357" y="1279" width="60" height="110" as="geometry"/>
                </mxCell>
                <mxCell id="236" value="" style="rounded=1;whiteSpace=wrap;html=1;" parent="1" vertex="1">
                    <mxGeometry x="10" y="1189" width="323" height="250" as="geometry"/>
                </mxCell>
                <mxCell id="237" value="Printer" style="text;html=1;align=center;verticalAlign=middle;resizable=0;points=[];autosize=1;strokeColor=none;fillColor=none;fontStyle=1" parent="1" vertex="1">
                    <mxGeometry x="103" y="1209" width="60" height="30" as="geometry"/>
                </mxCell>
                <mxCell id="241" value="" style="endArrow=none;html=1;" parent="1" edge="1">
                    <mxGeometry width="50" height="50" relative="1" as="geometry">
                        <mxPoint x="43" y="1249" as="sourcePoint"/>
                        <mxPoint x="311" y="1250" as="targetPoint"/>
                    </mxGeometry>
                </mxCell>
                <mxCell id="242" value="Queue" style="text;html=1;strokeColor=none;fillColor=none;align=center;verticalAlign=middle;whiteSpace=wrap;rounded=0;" parent="1" vertex="1">
                    <mxGeometry x="43" y="1345" width="60" height="30" as="geometry"/>
                </mxCell>
                <mxCell id="243" value="Printed" style="text;html=1;strokeColor=none;fillColor=none;align=center;verticalAlign=middle;whiteSpace=wrap;rounded=0;" parent="1" vertex="1">
                    <mxGeometry x="43" y="1269" width="60" height="30" as="geometry"/>
                </mxCell>
                <mxCell id="244" value="" style="rounded=1;whiteSpace=wrap;html=1;" parent="1" vertex="1">
                    <mxGeometry x="620" y="1800" width="323" height="250" as="geometry"/>
                </mxCell>
                <mxCell id="245" value="Actor" style="shape=umlActor;verticalLabelPosition=bottom;verticalAlign=top;html=1;outlineConnect=0;" parent="1" vertex="1">
                    <mxGeometry x="770.5" y="1870" width="30" height="60" as="geometry"/>
                </mxCell>
                <mxCell id="246" value="delete" style="text;html=1;align=center;verticalAlign=middle;resizable=0;points=[];autosize=1;strokeColor=none;fillColor=none;" parent="1" vertex="1">
                    <mxGeometry x="756" y="2000" width="60" height="30" as="geometry"/>
                </mxCell>
                <mxCell id="247" value="repeat" style="text;html=1;align=center;verticalAlign=middle;resizable=0;points=[];autosize=1;strokeColor=none;fillColor=none;" parent="1" vertex="1">
                    <mxGeometry x="802" y="2000" width="60" height="30" as="geometry"/>
                </mxCell>
                <mxCell id="248" value="to gallery" style="text;html=1;align=center;verticalAlign=middle;resizable=0;points=[];autosize=1;strokeColor=none;fillColor=none;" parent="1" vertex="1">
                    <mxGeometry x="872" y="2000" width="70" height="30" as="geometry"/>
                </mxCell>
                <mxCell id="249" value="&amp;nbsp;to home" style="text;html=1;align=center;verticalAlign=middle;resizable=0;points=[];autosize=1;strokeColor=none;fillColor=none;" parent="1" vertex="1">
                    <mxGeometry x="624.5" y="2000" width="70" height="30" as="geometry"/>
                </mxCell>
                <mxCell id="250" value="" style="endArrow=none;html=1;" parent="1" edge="1">
                    <mxGeometry width="50" height="50" relative="1" as="geometry">
                        <mxPoint x="652" y="2000" as="sourcePoint"/>
                        <mxPoint x="920" y="2001" as="targetPoint"/>
                    </mxGeometry>
                </mxCell>
                <mxCell id="251" value="print" style="text;html=1;align=center;verticalAlign=middle;resizable=0;points=[];autosize=1;strokeColor=none;fillColor=none;" parent="1" vertex="1">
                    <mxGeometry x="761" y="2020" width="50" height="30" as="geometry"/>
                </mxCell>
                <mxCell id="252" value="download" style="text;html=1;align=center;verticalAlign=middle;resizable=0;points=[];autosize=1;strokeColor=none;fillColor=none;" parent="1" vertex="1">
                    <mxGeometry x="700.5" y="2000" width="70" height="30" as="geometry"/>
                </mxCell>
                <mxCell id="253" value="print started" style="rounded=1;whiteSpace=wrap;html=1;" parent="1" vertex="1">
                    <mxGeometry x="695.5" y="1845" width="178" height="120" as="geometry"/>
                </mxCell>
                <mxCell id="254" value="" style="endArrow=classic;html=1;entryX=0.5;entryY=0;entryDx=0;entryDy=0;exitX=0.5;exitY=1;exitDx=0;exitDy=0;" parent="1" source="120" target="244" edge="1">
                    <mxGeometry width="50" height="50" relative="1" as="geometry">
                        <mxPoint x="750" y="1520" as="sourcePoint"/>
                        <mxPoint x="800" y="1470" as="targetPoint"/>
                    </mxGeometry>
                </mxCell>
                <mxCell id="257" value="" style="rounded=0;whiteSpace=wrap;html=1;fillColor=none;strokeColor=#66B2FF;fontColor=#66B2FF;" vertex="1" parent="1">
                    <mxGeometry x="1216" y="930" width="230" height="140" as="geometry"/>
                </mxCell>
                <mxCell id="259" value="themable picture with text" style="text;html=1;strokeColor=none;fillColor=none;align=center;verticalAlign=middle;whiteSpace=wrap;rounded=0;fontColor=#66B2FF;" vertex="1" parent="1">
                    <mxGeometry x="1271" y="985" width="120" height="30" as="geometry"/>
                </mxCell>
                <mxCell id="260" value="&lt;meta charset=&quot;utf-8&quot;&gt;&lt;span style=&quot;font-family: Helvetica; font-size: 12px; font-style: normal; font-variant-ligatures: normal; font-variant-caps: normal; letter-spacing: normal; orphans: 2; text-align: center; text-indent: 0px; text-transform: none; widows: 2; word-spacing: 0px; -webkit-text-stroke-width: 0px; background-color: rgb(251, 251, 251); text-decoration-thickness: initial; text-decoration-style: initial; text-decoration-color: initial; float: none; display: inline !important;&quot;&gt;themable text&lt;/span&gt;" style="text;whiteSpace=wrap;html=1;fontColor=#66B2FF;fontStyle=0" vertex="1" parent="1">
                    <mxGeometry x="1295.5" y="1630" width="94.5" height="30" as="geometry"/>
                </mxCell>
            </root>
        </mxGraphModel>
    </diagram>
</mxfile>
